<svg id="svg" version="1.1" xmlns="http://www.w3.org/2000/svg" xmlns:xlink="http://www.w3.org/1999/xlink" width="400" height="383.33333333333337" viewBox="0, 0, 400,383.33333333333337"><g id="svgg"><path id="path0" d="M106.218 111.889 L 19.751 198.466 45.638 198.658 L 71.524 198.849 71.621 285.618 L 71.718 372.387 115.056 372.387 L 158.393 372.387 158.295 336.661 L 158.198 300.935 154.362 299.335 C 76.529 266.867,67.344 160.729,138.447 115.415 C 151.795 106.908,164.285 102.470,182.742 99.678 C 186.689 99.081,202.930 99.065,206.711 99.655 C 208.293 99.902,210.796 100.293,212.272 100.524 C 234.342 103.978,256.118 115.663,271.630 132.374 C 273.654 134.554,276.226 137.546,277.346 139.022 C 278.467 140.499,279.489 141.793,279.617 141.898 C 280.787 142.858,287.013 153.310,289.528 158.538 C 298.349 176.870,302.078 203.538,298.224 220.709 C 298.129 221.131,297.840 222.512,297.581 223.778 C 290.397 258.880,266.279 287.300,232.502 300.464 L 227.804 302.295 227.804 337.341 L 227.804 372.387 271.140 372.387 L 314.476 372.387 314.573 285.618 L 314.669 198.849 340.447 198.658 L 366.225 198.466 279.853 111.875 C 232.348 64.249,193.302 25.290,193.083 25.297 C 192.865 25.305,153.775 64.271,106.218 111.889 M188.303 102.824 C 178.835 103.343,171.346 104.833,161.277 108.199 C 114.240 123.926,84.938 175.300,95.519 223.490 C 98.703 237.988,103.551 249.129,111.985 261.326 C 118.563 270.840,128.728 280.561,139.406 287.550 C 144.988 291.204,156.182 296.836,157.860 296.836 C 158.286 296.836,158.398 294.261,158.480 282.550 L 158.581 268.265 193.097 268.265 L 227.613 268.265 227.713 283.317 C 227.768 291.596,227.911 298.370,228.030 298.370 C 228.859 298.370,237.319 294.739,241.505 292.587 C 267.065 279.444,286.798 254.616,293.179 227.568 C 294.780 220.779,295.163 218.504,295.689 212.656 C 299.492 170.348,277.377 131.385,238.910 112.622 C 223.349 105.032,206.729 101.814,188.303 102.824 M157.652 150.527 C 157.802 169.129,158.017 178.733,158.311 179.958 C 160.111 187.447,164.990 192.553,171.859 194.139 C 174.151 194.668,173.912 194.950,174.857 190.594 C 175.577 187.275,175.912 186.116,176.797 183.893 C 181.197 172.830,188.331 165.988,199.521 162.098 C 200.148 161.880,200.192 160.599,200.192 142.527 C 200.192 125.247,200.256 123.164,200.798 122.956 C 201.689 122.614,209.890 122.683,210.447 123.037 C 210.812 123.269,210.946 127.640,211.022 141.919 L 211.122 160.499 214.203 160.728 C 218.026 161.013,223.789 162.236,224.928 163.005 C 225.139 163.147,225.867 163.450,226.545 163.678 C 233.785 166.112,240.790 174.247,242.947 182.727 C 243.940 186.630,244.231 186.385,238.590 186.385 C 233.277 186.385,233.111 186.327,232.621 184.276 C 231.192 178.293,225.405 172.476,219.175 170.761 C 215.271 169.686,214.372 169.511,212.761 169.511 L 211.038 169.511 210.769 174.976 C 210.621 177.982,210.325 181.131,210.110 181.975 C 209.895 182.819,209.539 184.199,209.319 185.043 C 206.746 194.927,195.558 203.643,185.444 203.643 C 184.096 203.643,184.066 203.840,184.692 208.624 C 186.867 225.231,196.065 234.427,210.547 234.473 C 223.590 234.515,232.005 227.053,233.746 213.902 L 233.988 212.081 239.276 212.081 L 244.564 212.081 243.875 215.718 C 240.419 233.970,229.237 243.167,210.355 243.289 C 188.824 243.427,173.783 228.148,173.735 206.090 C 173.730 203.747,173.728 203.743,172.483 203.515 C 158.620 200.971,151.640 195.380,148.468 184.276 L 147.482 180.825 147.359 152.284 C 147.291 136.587,147.325 123.509,147.435 123.222 C 147.593 122.811,148.680 122.723,152.533 122.807 L 157.430 122.915 157.652 150.527 M196.538 173.634 C 190.879 177.531,186.090 185.451,185.024 192.675 L 184.747 194.554 186.383 194.292 C 194.458 193.001,200.192 184.931,200.192 174.856 C 200.192 171.186,200.125 171.164,196.538 173.634 " stroke="none" fill="#f46c5c" fill-rule="evenodd"></path></g></svg>